<?xml version="1.0" standalone="no"?><!DOCTYPE svg PUBLIC "-//W3C//DTD SVG 1.1//EN" "http://www.w3.org/Graphics/SVG/1.1/DTD/svg11.dtd"><svg t="1670056151494" class="icon" viewBox="0 0 1024 1024" version="1.1" xmlns="http://www.w3.org/2000/svg" p-id="14962" xmlns:xlink="http://www.w3.org/1999/xlink" width="200" height="200"><path d="M158.999273 643.518836l350.524509 199.158691c9.346327 5.306182 20.517236 5.771636 30.198691 1.303273l2.8672-1.489455 341.513309-197.892654 48.407273 25.8048c22.583855 12.194909 23.123782 44.422982 0.91229 57.344L542.589673 954.181818a33.010036 33.010036 0 0 1-33.065891 0.186182L109.698327 727.226182c-22.416291-12.753455-22.043927-44.795345 0.558546-57.157818l48.7424-26.530909z m-5.343418-177.300945l355.867927 202.193454c9.346327 5.306182 20.517236 5.771636 30.198691 1.303273l2.8672-1.489454 346.856727-200.983273 43.045236 22.9376c22.602473 12.194909 23.1424 44.422982 0.930909 57.344L542.589673 773.957818a33.010036 33.010036 0 0 1-33.065891 0.186182L109.698327 547.002182c-22.416291-12.753455-22.043927-44.795345 0.558546-57.157818l43.398982-23.607855zM532.666182 96.963491l399.825454 212.992c22.602473 12.194909 23.1424 44.422982 0.930909 57.344L542.589673 593.733818a33.010036 33.010036 0 0 1-33.065891 0.186182L109.698327 366.778182c-22.416291-12.753455-22.043927-44.795345 0.558546-57.157818L501.052509 97.131055a33.475491 33.475491 0 0 1 31.595055-0.186182z" p-id="14963" fill="#fff"></path></svg>