<svg 
 xmlns="http://www.w3.org/2000/svg"
 xmlns:xlink="http://www.w3.org/1999/xlink"
 width="33px" height="33px">
<path fill-rule="evenodd"  fill="rgb(44, 30, 12)"
 d="M16.448,0.434 C7.546,0.434 0.331,7.649 0.331,16.552 C0.331,25.454 7.546,32.669 16.448,32.669 C25.350,32.669 32.565,25.454 32.565,16.552 C32.565,7.649 25.350,0.434 16.448,0.434 ZM24.718,19.246 L18.252,25.750 C16.083,27.938 16.108,27.931 13.939,25.750 L7.473,19.246 C6.284,18.050 6.557,17.808 7.946,17.808 L11.153,17.808 L11.153,9.888 C11.153,8.247 12.479,6.913 14.109,6.913 L18.047,6.913 C19.678,6.913 21.003,8.244 21.003,9.888 L21.003,17.811 L24.255,17.811 C25.505,17.808 25.907,18.050 24.718,19.246 Z"/>
</svg>