<svg 
 xmlns="http://www.w3.org/2000/svg"
 xmlns:xlink="http://www.w3.org/1999/xlink"
 width="457px" height="148px">
<path fill-rule="evenodd"  fill="rgb(241, 94, 34)"
 d="M21.000,17.1000 L152.1000,17.1000 L131.1000,148.000 L0.000,148.000 L21.000,17.1000 Z"/>
<path fill-rule="evenodd"  fill="rgb(255, 255, 255)"
 d="M103.948,107.274 C103.635,106.894 103.130,106.704 102.434,106.704 C101.484,106.704 100.625,107.084 99.857,107.844 L92.806,114.969 L83.781,114.969 L95.005,51.319 L118.280,51.319 C120.116,51.319 121.308,50.844 121.856,49.894 C122.016,49.704 122.118,49.483 122.163,49.229 C122.230,48.849 122.147,48.421 121.913,47.946 C121.680,47.471 121.349,47.013 120.922,46.569 L112.186,39.539 C111.873,39.159 111.368,38.969 110.672,38.969 C110.165,38.969 109.670,39.080 109.188,39.301 C108.706,39.524 108.342,39.793 108.095,40.109 C107.424,40.679 106.722,41.344 105.986,42.104 C105.250,42.864 104.566,43.609 103.930,44.336 C103.295,45.065 102.761,45.666 102.329,46.141 C101.897,46.616 101.649,46.854 101.586,46.854 L42.116,46.854 C41.609,46.854 41.064,47.077 40.479,47.519 C39.894,47.963 39.551,48.469 39.452,49.039 C39.339,49.673 39.498,50.212 39.927,50.654 C40.354,51.098 40.822,51.319 41.330,51.319 L61.755,51.319 L50.531,114.969 L27.066,114.969 C26.496,114.969 25.934,115.190 25.382,115.634 C24.828,116.076 24.495,116.615 24.384,117.249 C24.271,117.881 24.417,118.404 24.819,118.816 C25.221,119.228 25.708,119.434 26.278,119.434 L109.593,119.434 C110.733,119.434 111.613,119.291 112.234,119.006 C112.854,118.721 113.271,118.325 113.488,117.819 L113.573,117.344 C113.650,116.900 113.620,116.441 113.482,115.966 C113.344,115.491 113.029,115.031 112.538,114.589 L103.948,107.274 ZM86.887,108.129 C87.077,108.129 87.194,108.003 87.238,107.749 L87.194,107.464 C88.729,105.944 90.099,104.457 91.306,102.999 C92.512,101.543 93.734,100.182 94.972,98.914 C96.093,97.584 97.185,96.239 98.248,94.876 C99.311,93.515 100.403,92.169 101.526,90.839 C102.582,89.509 103.599,88.148 104.573,86.754 C105.547,85.362 106.500,83.999 107.432,82.669 C108.426,81.339 109.327,79.994 110.138,78.631 C110.948,77.270 111.803,75.829 112.706,74.309 L112.991,74.309 C112.946,74.563 113.114,74.689 113.494,74.689 C115.166,74.183 116.515,73.534 117.542,72.741 C118.568,71.950 119.181,70.984 119.383,69.844 C119.617,68.514 119.056,67.564 117.701,66.994 L103.953,62.529 C103.837,62.467 103.715,62.434 103.589,62.434 L103.209,62.434 C102.131,62.434 101.281,63.132 100.656,64.524 C100.041,66.932 99.305,69.575 98.448,72.456 C97.592,75.339 96.700,78.332 95.774,81.434 C94.631,85.044 93.252,88.908 91.640,93.024 C90.028,97.142 88.264,101.574 86.351,106.324 L86.216,107.084 C86.137,107.528 86.266,107.877 86.602,108.129 L86.887,108.129 ZM74.865,51.319 L82.180,51.319 L70.956,114.969 L63.641,114.969 L74.865,51.319 ZM45.096,104.851 C46.203,104.314 47.301,103.474 48.389,102.334 C49.506,101.384 50.380,100.196 51.012,98.771 C51.643,97.346 52.126,95.684 52.461,93.784 C53.231,89.414 52.756,84.569 51.035,79.249 C50.174,76.589 48.919,73.819 47.275,70.936 C45.630,68.055 43.494,64.904 40.867,61.484 C40.605,61.168 40.381,61.009 40.191,61.009 L40.096,61.009 C40.010,61.137 39.891,61.263 39.743,61.389 C39.594,61.517 39.502,61.674 39.470,61.864 L39.302,62.814 C39.551,64.272 39.691,65.728 39.719,67.184 C39.747,68.642 39.792,70.098 39.851,71.554 C40.071,72.822 40.169,74.152 40.145,75.544 C40.121,76.938 40.107,78.363 40.104,79.819 L39.272,88.844 C39.119,90.428 38.912,92.059 38.647,93.736 C38.383,95.415 38.146,97.204 37.938,99.104 C37.513,101.512 37.573,103.158 38.113,104.044 C38.466,104.552 38.950,104.946 39.565,105.231 C40.179,105.516 40.740,105.659 41.248,105.659 C42.704,105.659 43.987,105.390 45.096,104.851 Z"/>
<path fill-rule="evenodd"  fill="rgb(194, 21, 31)"
 d="M131.1000,148.000 L109.000,129.1000 L135.1000,125.1000 L131.1000,148.000 Z"/>
<path fill-rule="evenodd"  fill="rgb(0, 147, 191)"
 d="M130.000,-0.000 L261.1000,-0.000 L240.1000,130.000 L109.000,130.000 L130.000,-0.000 Z"/>
<path fill-rule="evenodd"  fill="rgb(255, 255, 255)"
 d="M208.085,71.704 C208.679,71.388 209.197,70.882 209.636,70.184 C210.358,69.678 210.953,68.823 211.419,67.619 L208.253,85.574 C207.950,87.284 207.635,88.979 207.309,90.656 C206.981,92.335 206.656,94.093 206.332,95.929 C206.074,97.387 205.793,98.794 205.491,100.156 C205.188,101.518 204.924,102.831 204.701,104.099 C204.567,104.859 204.711,105.476 205.134,105.951 C205.557,106.426 206.150,106.664 206.910,106.664 C207.310,106.536 207.656,106.458 207.947,106.426 C208.238,106.394 208.510,106.379 208.764,106.379 C209.714,106.379 210.656,106.331 211.591,106.236 C212.527,106.141 213.574,106.030 214.738,105.904 C215.139,105.776 215.466,105.634 215.715,105.476 C215.964,105.318 216.245,105.080 216.554,104.764 C217.023,104.256 217.370,103.370 217.593,102.104 L230.106,31.139 C230.274,30.189 230.860,29.557 231.866,29.239 L233.415,28.004 C233.872,27.562 234.164,27.165 234.289,26.816 C234.414,26.469 234.509,26.104 234.577,25.724 C234.856,24.142 234.426,23.349 233.285,23.349 L221.975,22.304 L221.690,22.304 C220.992,22.304 220.377,22.558 219.844,23.064 C219.312,23.572 218.979,24.204 218.846,24.964 C218.632,26.168 218.421,27.450 218.213,28.811 C218.005,30.174 217.756,31.678 217.467,33.324 L212.491,61.539 C212.509,60.717 212.440,59.845 212.286,58.926 C212.132,58.009 211.853,57.074 211.450,56.124 C211.127,54.732 210.627,53.259 209.950,51.706 C209.273,50.155 208.352,48.557 207.186,46.909 C207.082,46.783 206.924,46.688 206.714,46.624 C206.503,46.562 206.334,46.529 206.208,46.529 C206.018,46.529 205.848,46.593 205.700,46.719 L207.625,35.794 C207.803,34.782 208.434,34.084 209.515,33.704 C209.864,33.514 210.166,33.324 210.422,33.134 C210.677,32.944 210.984,32.723 211.346,32.469 C212.050,31.709 212.480,30.887 212.638,29.999 C212.671,29.809 212.697,29.571 212.715,29.286 C212.733,29.001 212.665,28.764 212.509,28.574 C212.218,28.068 211.660,27.814 210.837,27.814 L201.349,26.674 L201.064,26.674 C200.240,26.674 199.512,26.944 198.879,27.481 C198.245,28.020 197.861,28.669 197.727,29.429 L191.631,64.009 C191.649,63.187 191.600,62.204 191.485,61.064 C191.391,59.798 191.220,58.437 190.970,56.979 C190.164,54.003 188.879,51.058 187.113,48.144 C186.979,47.828 186.627,47.669 186.057,47.669 L185.962,47.669 L188.692,32.184 C188.858,31.234 189.393,30.538 190.295,30.094 C190.761,29.968 191.108,29.794 191.337,29.571 C191.566,29.350 191.836,29.082 192.145,28.764 C192.528,28.384 192.810,27.956 192.988,27.481 C193.166,27.006 193.289,26.579 193.357,26.199 C193.469,25.567 193.397,25.075 193.142,24.726 C192.887,24.379 192.579,24.142 192.223,24.014 L181.448,23.159 L181.163,23.159 C180.339,23.159 179.661,23.413 179.130,23.919 C178.597,24.427 178.269,25.028 178.147,25.724 C178.147,26.802 178.059,27.925 177.884,29.096 C177.709,30.269 177.486,31.614 177.219,33.134 L172.965,57.264 C172.472,60.052 171.951,62.648 171.400,65.054 C170.850,67.462 170.321,69.742 169.815,71.894 C169.297,74.112 168.709,76.185 168.053,78.116 C167.396,80.049 166.714,81.933 166.011,83.769 C165.243,85.607 164.424,87.379 163.553,89.089 C162.681,90.799 161.736,92.573 160.714,94.409 C159.589,96.119 158.412,97.860 157.182,99.634 C155.950,101.406 154.651,103.116 153.284,104.764 C153.195,105.270 153.304,105.634 153.613,105.856 C153.922,106.078 154.330,106.189 154.838,106.189 C155.028,106.189 155.270,106.156 155.567,106.094 C155.863,106.030 156.192,105.871 156.554,105.619 C158.264,104.541 159.873,103.401 161.384,102.199 C162.893,100.995 164.324,99.791 165.678,98.589 C167.160,97.007 168.452,95.423 169.555,93.839 C170.657,92.257 172.132,90.357 173.980,88.139 C175.340,86.177 176.493,84.118 177.443,81.964 C178.393,79.812 179.293,77.404 180.142,74.744 C180.979,72.148 181.744,69.345 182.432,66.336 C183.121,63.329 183.773,60.083 184.387,56.599 L185.275,51.564 C185.319,52.388 185.291,53.259 185.193,54.176 C185.095,55.095 185.020,56.062 184.968,57.074 C184.760,58.974 184.539,60.764 184.307,62.441 C184.074,64.120 183.813,65.783 183.522,67.429 C183.364,68.317 183.286,69.124 183.284,69.851 C183.283,70.580 183.402,71.167 183.641,71.609 C183.771,72.307 184.343,72.654 185.357,72.654 C186.117,72.654 186.787,72.528 187.371,72.274 C187.953,72.022 188.575,71.642 189.234,71.134 C189.960,70.248 190.630,68.602 191.245,66.194 L188.615,81.109 C188.030,83.707 187.448,86.652 186.868,89.944 L184.991,100.584 C184.834,101.470 185.015,102.151 185.533,102.626 C186.051,103.101 186.753,103.339 187.641,103.339 C187.916,103.211 188.183,103.133 188.441,103.101 C188.699,103.069 189.020,103.054 189.400,103.054 C191.172,103.054 192.563,102.895 193.570,102.579 C194.626,102.325 195.327,101.945 195.670,101.439 C195.853,101.121 196.023,100.694 196.182,100.156 C196.339,99.618 196.480,99.000 196.604,98.304 L205.330,48.809 C205.278,49.823 205.226,50.837 205.174,51.849 L204.984,55.079 C205.033,56.599 204.929,58.356 204.673,60.351 C204.416,62.346 204.080,64.517 203.668,66.859 C203.355,68.633 203.389,69.963 203.772,70.849 C204.153,71.737 205.010,72.179 206.340,72.179 C206.910,72.179 207.492,72.022 208.085,71.704 ZM146.798,106.521 C147.769,106.046 148.632,105.460 149.389,104.764 C150.260,104.130 150.901,103.370 151.311,102.484 C151.721,101.596 152.020,100.615 152.210,99.539 L152.579,97.449 C152.700,96.753 152.776,96.152 152.803,95.644 C152.828,95.138 152.804,94.551 152.731,93.886 C152.659,93.221 152.601,92.478 152.556,91.654 C152.446,90.832 152.359,90.072 152.292,89.374 C152.225,88.678 152.169,87.918 152.124,87.094 C152.184,86.398 152.264,85.764 152.365,85.194 L153.034,81.394 C153.168,80.634 153.356,79.748 153.598,78.734 C153.922,77.974 154.293,77.040 154.710,75.931 C155.127,74.824 155.607,73.637 156.147,72.369 L171.386,35.509 L171.503,34.844 C171.592,34.338 171.420,34.053 170.989,33.989 C170.862,33.989 170.713,34.022 170.544,34.084 C170.375,34.148 170.272,34.274 170.240,34.464 C168.467,37.694 166.631,40.924 164.731,44.154 C162.831,47.384 160.921,50.678 158.1000,54.034 C156.984,57.202 155.010,60.399 153.079,63.629 C151.148,66.859 149.297,70.089 147.524,73.319 L147.490,73.509 C147.273,74.017 147.070,74.364 146.879,74.554 C146.686,74.744 146.409,74.967 146.049,75.219 C145.474,75.599 144.428,75.789 142.908,75.789 C142.590,75.789 142.295,75.758 142.022,75.694 C141.749,75.632 141.484,75.599 141.232,75.599 L140.377,75.599 C139.869,75.599 139.449,75.741 139.114,76.026 C138.778,76.311 138.456,76.613 138.147,76.929 C138.136,76.993 138.109,77.057 138.066,77.119 C138.023,77.183 137.990,77.278 137.968,77.404 C137.889,77.848 138.017,78.292 138.351,78.734 C138.683,79.178 139.087,79.494 139.562,79.684 C140.381,80.064 140.992,80.460 141.394,80.871 C141.796,81.284 142.117,81.712 142.356,82.154 C142.988,83.232 143.138,84.719 142.804,86.619 L142.586,87.854 C142.517,88.234 142.370,88.709 142.145,89.279 C141.965,90.293 141.554,91.369 140.910,92.509 C140.574,93.333 140.289,94.045 140.058,94.646 C139.825,95.249 139.615,95.898 139.430,96.594 C139.213,97.102 139.056,97.639 138.955,98.209 L138.670,99.824 C138.446,101.090 138.351,102.166 138.385,103.054 C138.418,103.940 138.734,104.669 139.330,105.239 C139.800,105.809 140.396,106.284 141.121,106.664 C141.845,107.044 142.684,107.234 143.634,107.234 C144.774,107.234 145.828,106.996 146.798,106.521 ZM162.007,41.019 C162.877,40.577 163.726,39.974 164.557,39.214 C166.517,37.442 167.725,35.257 168.184,32.659 C168.418,31.329 168.295,30.141 167.814,29.096 C167.333,28.051 166.538,27.087 165.427,26.199 C163.818,24.553 160.562,23.444 155.659,22.874 L155.374,22.874 C154.550,22.874 153.803,23.064 153.135,23.444 C152.467,23.824 152.083,24.299 151.982,24.869 C151.937,25.123 151.961,25.344 152.055,25.534 C152.479,26.358 152.890,27.165 153.290,27.956 C153.687,28.749 154.042,29.524 154.352,30.284 C154.575,31.172 154.756,32.122 154.894,33.134 C155.032,34.148 155.164,35.193 155.292,36.269 L155.209,36.744 C155.325,40.038 156.649,41.684 159.183,41.684 C160.195,41.684 161.137,41.463 162.007,41.019 ZM155.378,58.404 C157.159,56.568 158.244,54.542 158.636,52.324 C158.892,50.868 158.814,49.602 158.403,48.524 C157.991,47.448 157.293,46.467 156.310,45.579 C155.304,44.819 154.021,44.187 152.464,43.679 C150.907,43.173 148.960,42.729 146.620,42.349 C146.493,42.349 146.372,42.318 146.257,42.254 C146.141,42.192 145.988,42.159 145.798,42.159 C145.100,42.159 144.460,42.382 143.876,42.824 C143.291,43.268 142.936,43.838 142.814,44.534 C143.041,45.042 143.243,45.517 143.418,45.959 C143.594,46.403 143.831,46.847 144.134,47.289 C144.558,48.113 144.940,48.999 145.280,49.949 C145.517,50.393 145.658,50.851 145.701,51.326 C145.744,51.801 145.848,52.293 146.012,52.799 C146.049,53.307 146.102,53.813 146.170,54.319 C146.239,54.827 146.307,55.428 146.375,56.124 L146.325,56.409 C146.359,59.449 147.548,60.969 149.892,60.969 C151.918,60.969 153.747,60.114 155.378,58.404 L155.378,58.404 ZM165.458,72.891 C166.262,72.290 166.995,71.547 167.658,70.659 C169.401,68.317 170.663,64.928 171.445,60.494 C171.690,59.102 171.847,57.755 171.918,56.456 C171.990,55.159 172.062,53.939 172.137,52.799 C172.095,51.597 171.988,50.409 171.815,49.236 C171.641,48.065 171.445,46.847 171.225,45.579 L171.276,45.294 C171.331,44.978 171.231,44.819 170.979,44.819 C170.789,44.819 170.666,44.978 170.611,45.294 L170.510,45.864 C170.017,47.574 169.463,49.189 168.847,50.709 C168.231,52.229 167.575,53.528 166.879,54.604 C166.285,55.808 165.660,56.836 165.004,57.691 C164.347,58.546 163.803,59.292 163.376,59.924 C161.822,61.192 160.786,62.394 160.269,63.534 C160.106,64.104 159.934,64.721 159.753,65.386 C159.571,66.051 159.420,66.733 159.297,67.429 C159.174,68.127 159.125,68.854 159.148,69.614 C159.172,70.374 159.346,71.103 159.666,71.799 C160.113,72.497 160.578,73.003 161.060,73.319 C161.543,73.637 162.165,73.794 162.925,73.794 C163.811,73.794 164.655,73.494 165.458,72.891 Z"/>
<path fill-rule="evenodd"  fill="rgb(255, 255, 255)"
 d="M456.155,60.081 L456.107,60.349 C455.816,61.243 455.255,61.890 454.425,62.292 C453.886,62.560 453.337,62.885 452.779,63.264 C452.221,63.644 451.686,64.146 451.174,64.771 C450.423,65.486 449.731,66.302 449.101,67.217 C448.470,68.133 447.785,69.171 447.045,70.332 C446.883,70.734 446.609,71.025 446.221,71.203 C445.831,71.382 445.459,71.471 445.102,71.471 C444.877,71.471 444.644,71.404 444.400,71.270 C443.349,70.645 442.394,70.042 441.536,69.461 C440.677,68.881 439.839,68.255 439.020,67.585 C438.975,67.585 438.934,67.563 438.898,67.518 C438.940,67.786 438.952,67.965 438.938,68.054 L438.878,68.389 C438.641,68.970 437.808,69.260 436.379,69.260 L410.048,69.260 C409.646,69.260 409.334,69.126 409.114,68.858 C408.893,68.590 408.818,68.255 408.889,67.853 L408.925,67.652 C408.034,68.144 407.189,68.568 406.389,68.925 C405.589,69.283 404.778,69.640 403.955,69.997 C402.533,70.712 401.093,71.349 399.633,71.907 C398.171,72.466 396.653,73.035 395.077,73.615 C394.732,73.794 394.359,73.883 393.957,73.883 C393.465,73.883 393.095,73.772 392.844,73.548 C392.592,73.325 392.511,72.968 392.598,72.476 L392.669,72.074 L392.535,72.074 C395.188,70.198 397.640,68.379 399.895,66.614 C402.149,64.850 404.248,63.141 406.193,61.488 C408.019,59.746 409.730,58.083 411.327,56.497 C412.925,54.912 414.379,53.314 415.690,51.706 C416.367,50.902 416.951,50.121 417.443,49.361 C417.934,48.602 418.414,47.910 418.881,47.284 C419.235,46.793 419.502,46.358 419.681,45.978 C419.859,45.599 420.070,45.230 420.312,44.872 C420.576,44.381 420.918,43.968 421.334,43.633 C421.751,43.298 422.227,43.130 422.763,43.130 C422.941,43.130 423.094,43.153 423.220,43.197 L434.071,45.877 C434.806,46.011 435.087,46.570 434.914,47.552 C434.852,47.910 434.734,48.256 434.564,48.591 C434.392,48.926 434.131,49.205 433.780,49.428 C433.533,49.562 433.274,49.696 433.005,49.830 C432.735,49.964 432.414,50.076 432.042,50.165 C432.380,50.523 432.748,50.835 433.148,51.103 C433.548,51.371 433.929,51.617 434.293,51.840 C435.262,52.421 436.213,52.979 437.145,53.515 C438.078,54.051 439.127,54.565 440.291,55.056 C441.389,55.414 442.528,55.793 443.708,56.195 C444.888,56.597 446.165,56.955 447.540,57.267 C448.645,57.580 449.857,57.860 451.177,58.105 C452.496,58.351 453.850,58.585 455.240,58.808 C455.975,58.942 456.281,59.367 456.155,60.081 ZM434.010,62.560 C433.266,61.712 432.589,60.796 431.981,59.813 C431.373,58.831 430.863,57.736 430.451,56.530 C430.113,55.905 429.801,55.269 429.514,54.621 C429.226,53.974 428.921,53.292 428.601,52.577 C427.637,53.739 426.637,54.788 425.600,55.726 C424.564,56.664 423.520,57.580 422.469,58.473 C419.818,60.841 416.850,62.985 413.563,64.905 C412.993,65.352 412.292,65.776 411.463,66.178 L425.935,66.178 L425.990,66.245 C426.063,66.335 426.092,66.424 426.077,66.513 L429.836,62.292 C429.972,62.024 430.220,61.823 430.579,61.689 C430.937,61.555 431.295,61.488 431.653,61.488 C431.965,61.488 432.344,61.622 432.788,61.890 L434.838,63.565 L434.010,62.560 ZM389.360,55.693 C389.167,55.894 388.932,56.151 388.654,56.463 C388.047,56.865 387.058,57.156 385.686,57.334 L385.619,57.334 C385.574,57.334 385.564,57.267 385.588,57.133 L385.454,57.133 C384.608,57.625 383.825,58.071 383.107,58.473 C382.388,58.875 381.573,59.255 380.662,59.612 C380.026,59.925 379.392,60.227 378.760,60.517 C378.128,60.808 377.408,61.086 376.602,61.354 L376.031,61.555 L376.153,61.622 C376.338,61.846 376.473,62.091 376.559,62.359 C376.645,62.627 376.645,63.007 376.559,63.498 C376.497,63.856 376.269,64.258 375.878,64.704 C375.704,64.928 375.529,65.096 375.353,65.207 C375.178,65.319 374.956,65.374 374.688,65.374 C374.464,65.374 374.222,65.352 373.962,65.307 C373.703,65.263 373.401,65.196 373.060,65.106 C372.486,65.062 372.108,64.928 371.925,64.704 L371.523,64.704 C369.785,64.928 367.923,65.106 365.934,65.240 C363.945,65.374 361.796,65.531 359.487,65.709 C357.728,65.799 355.825,65.888 353.777,65.977 C351.730,66.067 349.541,66.134 347.210,66.178 L346.312,71.270 L368.824,71.270 C369.092,71.270 369.206,71.382 369.167,71.605 L372.005,68.054 C372.275,67.786 372.589,67.585 372.948,67.451 C373.306,67.317 373.642,67.250 373.955,67.250 C374.178,67.250 374.386,67.273 374.579,67.317 C374.771,67.362 374.905,67.429 374.980,67.518 L379.580,71.069 C380.436,71.784 380.809,72.454 380.699,73.079 L380.640,73.414 C380.353,73.772 379.985,74.029 379.533,74.185 C379.080,74.342 378.408,74.419 377.515,74.419 L366.527,74.419 L364.613,85.273 L371.648,85.273 L371.703,85.340 L371.826,85.407 L375.337,81.454 C375.833,80.918 376.438,80.650 377.153,80.650 C377.599,80.650 377.959,80.762 378.233,80.985 L383.073,85.072 C383.990,85.698 384.393,86.323 384.283,86.948 C384.252,87.127 384.206,87.261 384.145,87.350 C383.893,88.020 382.896,88.355 381.154,88.355 L324.472,88.355 C323.936,88.355 323.540,88.188 323.287,87.853 C323.034,87.518 322.939,87.172 323.002,86.814 C323.182,85.787 323.854,85.273 325.016,85.273 L334.463,85.273 L337.408,67.049 L338.365,61.622 C338.436,61.220 338.648,60.841 339.002,60.483 C339.355,60.126 339.776,59.947 340.269,59.947 C340.446,59.947 340.577,59.970 340.659,60.014 L348.998,62.493 C351.094,62.002 353.026,61.500 354.792,60.986 C356.557,60.473 358.242,59.970 359.848,59.478 C361.542,58.987 363.053,58.463 364.380,57.904 C365.707,57.346 366.868,56.776 367.864,56.195 C368.484,55.972 369.018,55.860 369.465,55.860 C369.822,55.860 370.126,55.905 370.379,55.994 C370.630,56.084 370.893,56.240 371.167,56.463 L374.396,59.813 L376.007,55.994 L376.042,55.793 C376.081,55.570 376.048,55.381 375.941,55.224 C375.834,55.068 375.670,54.989 375.447,54.989 L340.004,54.989 L339.803,56.128 C339.677,56.843 339.538,57.502 339.387,58.105 C339.236,58.708 339.006,59.255 338.696,59.746 C338.362,60.372 338.033,60.908 337.709,61.354 C337.384,61.801 337.012,62.203 336.592,62.560 C336.192,63.052 335.753,63.454 335.274,63.766 C334.794,64.079 334.311,64.347 333.825,64.570 C333.444,64.704 333.021,64.828 332.554,64.939 C332.087,65.051 331.609,65.106 331.118,65.106 C330.492,65.106 329.958,64.972 329.514,64.704 C329.070,64.436 328.627,64.034 328.185,63.498 C327.833,62.962 327.644,62.382 327.621,61.756 C327.597,61.131 327.657,60.416 327.799,59.612 C327.916,58.942 328.057,58.339 328.218,57.803 C328.379,57.267 328.603,56.821 328.890,56.463 C329.087,56.106 329.428,55.749 329.916,55.391 C330.404,55.034 330.924,54.677 331.479,54.319 C332.182,53.873 332.863,53.438 333.518,53.013 C334.174,52.589 334.745,52.131 335.234,51.639 C335.775,51.103 336.244,50.534 336.641,49.931 C337.038,49.328 337.437,48.647 337.839,47.887 L337.898,47.552 C337.913,47.463 337.979,47.408 338.095,47.385 C338.210,47.363 338.313,47.351 338.403,47.351 C338.581,47.351 338.647,47.485 338.600,47.753 C338.957,48.513 339.242,49.239 339.455,49.931 C339.668,50.624 339.831,51.282 339.944,51.907 L353.344,51.907 C353.360,51.818 353.363,51.740 353.352,51.673 C353.342,51.606 353.344,51.528 353.360,51.438 L353.214,48.088 C353.053,47.731 352.916,47.307 352.802,46.815 C352.687,46.324 352.517,45.833 352.291,45.341 C352.225,45.207 352.215,45.006 352.264,44.738 C352.349,44.247 352.646,43.901 353.150,43.700 C353.655,43.499 354.197,43.398 354.778,43.398 C355.582,43.398 356.282,43.421 356.876,43.465 C357.471,43.510 358.007,43.577 358.482,43.666 C359.998,43.934 361.119,44.292 361.845,44.738 C362.569,45.185 363.119,45.743 363.492,46.413 C363.563,46.771 363.632,47.140 363.699,47.519 C363.766,47.899 363.765,48.289 363.693,48.691 C363.488,49.853 362.942,50.925 362.054,51.907 L375.856,51.907 C376.034,51.907 376.108,51.997 376.077,52.175 L379.182,48.624 C379.460,48.312 379.767,48.088 380.104,47.954 C380.440,47.820 380.787,47.753 381.145,47.753 C381.547,47.753 381.843,47.843 382.036,48.021 L388.724,52.644 C389.537,53.359 389.876,54.096 389.742,54.855 C389.679,55.213 389.551,55.492 389.360,55.693 ZM343.843,85.273 L355.300,85.273 L357.214,74.419 L345.757,74.419 L343.843,85.273 ZM333.266,94.720 C334.600,93.738 335.815,92.800 336.911,91.906 C338.006,91.013 339.005,90.164 339.906,89.360 C340.185,89.048 340.503,88.824 340.862,88.690 C341.220,88.556 341.578,88.489 341.936,88.489 C342.382,88.489 342.768,88.579 343.095,88.757 L350.071,93.648 C350.425,93.916 350.628,94.162 350.679,94.385 L350.489,95.457 C350.418,95.859 350.308,96.228 350.159,96.563 C350.011,96.898 349.769,97.132 349.433,97.266 C349.125,97.489 348.767,97.623 348.357,97.668 C347.946,97.712 347.451,97.735 346.871,97.735 L345.732,97.735 C344.723,98.137 343.761,98.528 342.846,98.908 C341.930,99.287 340.998,99.633 340.050,99.946 C339.049,100.303 338.074,100.638 337.126,100.951 C336.177,101.263 335.169,101.531 334.102,101.755 C333.057,102.112 332.002,102.392 330.940,102.593 C329.876,102.794 328.816,102.983 327.757,103.162 C326.825,103.385 325.894,103.598 324.965,103.799 C324.036,103.1000 323.113,104.167 322.196,104.301 L322.062,104.301 C321.749,104.301 321.456,104.189 321.183,103.966 C320.910,103.742 320.734,103.474 320.655,103.162 C320.597,102.983 320.576,102.849 320.592,102.760 C320.640,102.492 320.821,102.224 321.136,101.956 C321.451,101.688 321.803,101.464 322.192,101.286 C324.407,100.124 326.415,98.997 328.216,97.903 C330.016,96.809 331.700,95.748 333.266,94.720 ZM318.424,70.600 L305.895,70.600 L309.442,72.141 C309.658,72.186 309.876,72.342 310.097,72.610 C310.196,73.057 310.206,73.504 310.129,73.950 C310.041,74.442 309.750,74.955 309.254,75.491 C308.741,76.117 308.070,76.630 307.240,77.032 L306.047,83.799 C305.983,84.157 305.934,84.559 305.901,85.005 C305.867,85.452 305.806,85.921 305.720,86.412 L305.247,89.092 C305.129,89.762 304.954,90.310 304.723,90.734 C304.492,91.159 304.212,91.415 303.884,91.504 C303.511,91.594 303.160,91.683 302.831,91.772 C302.502,91.862 302.156,91.929 301.792,91.973 C302.222,92.063 302.654,92.141 303.090,92.208 C303.524,92.275 303.935,92.353 304.322,92.442 C305.293,92.755 306.150,93.090 306.891,93.447 C307.632,93.805 308.219,94.274 308.654,94.854 C309.500,95.882 309.796,97.110 309.545,98.539 C309.411,99.298 309.161,100.080 308.796,100.884 C308.394,101.643 307.918,102.313 307.369,102.894 C306.962,103.430 306.358,103.943 305.557,104.435 C305.241,104.703 304.704,104.837 303.945,104.837 C303.453,104.837 302.807,104.703 302.006,104.435 C301.488,104.077 300.813,103.474 299.980,102.626 C298.732,101.598 297.485,100.627 296.239,99.712 C294.993,98.796 293.656,97.958 292.227,97.199 C291.212,96.619 290.147,96.072 289.032,95.558 C287.916,95.045 286.714,94.519 285.424,93.983 C284.693,94.832 283.896,95.614 283.034,96.328 C282.171,97.043 281.226,97.779 280.199,98.539 C278.806,99.343 277.198,100.102 275.375,100.817 C273.551,101.531 271.546,102.134 269.361,102.626 C267.413,103.028 265.188,103.430 262.683,103.832 C260.177,104.234 257.427,104.569 254.432,104.837 C253.473,104.703 252.912,104.211 252.749,103.363 C252.719,103.273 252.725,103.117 252.764,102.894 C252.883,102.224 253.356,101.822 254.183,101.688 C256.348,101.062 258.320,100.449 260.102,99.846 C261.884,99.243 263.473,98.650 264.872,98.070 C266.508,97.400 267.960,96.764 269.228,96.161 C270.495,95.558 271.676,94.944 272.769,94.318 C273.817,93.693 274.722,93.057 275.484,92.409 C276.246,91.762 276.947,91.013 277.589,90.164 C278.117,89.450 278.610,88.680 279.068,87.853 C279.527,87.027 279.897,86.189 280.181,85.340 C280.204,85.206 280.261,85.017 280.349,84.771 C280.436,84.526 280.499,84.291 280.539,84.067 C280.586,83.799 280.656,83.531 280.748,83.263 C280.841,82.995 280.914,82.705 280.969,82.392 L281.370,80.114 C281.473,79.534 281.769,79.054 282.261,78.674 C282.752,78.295 283.266,78.104 283.802,78.104 L292.437,78.908 C292.920,78.953 293.287,79.087 293.538,79.310 C293.789,79.534 293.864,79.936 293.762,80.516 C293.707,80.829 293.600,81.119 293.441,81.387 C293.282,81.655 293.081,81.968 292.840,82.325 C292.337,82.638 291.619,83.040 290.684,83.531 L290.617,83.531 C290.527,83.531 290.442,83.509 290.361,83.464 C290.271,83.464 290.234,83.420 290.251,83.330 L290.238,83.397 C289.897,84.827 289.484,86.156 288.1000,87.384 C288.515,88.613 288.000,89.762 287.454,90.834 C288.956,90.924 290.383,91.002 291.733,91.069 C293.084,91.136 294.372,91.236 295.599,91.370 C295.587,91.192 295.615,90.901 295.686,90.499 L298.061,77.032 C298.171,76.407 297.824,76.094 297.020,76.094 L275.982,76.094 L273.241,91.638 C273.005,92.978 272.563,93.715 271.914,93.849 C271.248,94.073 270.537,94.241 269.781,94.352 C269.024,94.464 268.262,94.542 267.496,94.586 C267.228,94.586 266.911,94.609 266.545,94.653 C266.180,94.698 265.819,94.720 265.462,94.720 L265.261,94.720 C264.769,94.720 264.417,94.564 264.205,94.251 C263.991,93.939 263.928,93.537 264.015,93.045 L264.075,92.710 C264.079,92.174 264.141,91.571 264.259,90.901 L267.520,72.409 C267.606,71.918 267.811,71.516 268.135,71.203 C268.457,70.891 268.864,70.734 269.356,70.734 L269.691,70.734 L278.548,72.945 C278.621,73.035 278.680,73.079 278.725,73.079 L297.552,73.079 C297.820,73.079 297.934,73.191 297.895,73.414 L299.999,70.600 L259.397,70.600 C258.950,70.600 258.609,70.444 258.375,70.131 C258.139,69.819 258.053,69.484 258.116,69.126 C258.202,68.635 258.420,68.222 258.769,67.887 C259.119,67.552 259.517,67.384 259.964,67.384 L284.486,67.384 L285.219,63.230 L275.504,63.230 C275.265,64.079 275.076,64.637 274.940,64.905 C274.556,65.307 274.133,65.553 273.672,65.642 C273.030,65.732 272.372,65.788 271.698,65.810 C271.024,65.833 270.412,65.888 269.860,65.977 L267.984,65.977 C267.403,65.977 266.954,65.799 266.638,65.441 C266.321,65.084 266.218,64.593 266.329,63.967 C266.392,63.610 266.484,63.275 266.606,62.962 C266.728,62.650 266.821,62.315 266.885,61.957 L268.940,50.299 C269.011,49.897 269.212,49.518 269.543,49.160 C269.873,48.803 270.240,48.624 270.642,48.624 C270.865,48.624 271.018,48.647 271.099,48.691 L278.699,50.433 L279.010,50.567 L287.117,50.567 L287.164,50.299 C287.305,49.495 287.429,48.669 287.533,47.820 C287.638,46.972 287.758,46.168 287.892,45.408 C287.978,44.917 288.257,44.482 288.726,44.102 C289.195,43.723 289.697,43.532 290.233,43.532 L290.367,43.532 L298.454,44.403 C298.766,44.403 299.051,44.437 299.307,44.504 C299.563,44.571 299.720,44.694 299.779,44.872 C299.986,44.962 300.104,45.118 300.131,45.341 C300.159,45.565 300.153,45.788 300.114,46.011 C299.908,47.173 299.118,48.111 297.741,48.825 C296.988,49.049 296.547,49.518 296.421,50.232 L296.363,50.567 L304.336,50.567 C304.470,50.567 304.508,50.724 304.454,51.036 L304.655,51.036 L306.250,48.825 C306.573,48.513 306.807,48.200 306.952,47.887 C307.488,47.128 308.180,46.748 309.029,46.748 C309.475,46.748 309.776,46.815 309.931,46.949 L316.427,49.629 L316.892,50.031 C317.113,50.299 317.164,50.768 317.046,51.438 C316.935,52.064 316.632,52.644 316.136,53.180 C315.886,53.582 315.567,53.929 315.182,54.219 C314.796,54.510 314.397,54.811 313.985,55.123 L312.661,62.627 C312.425,63.967 311.967,64.660 311.290,64.704 C310.633,64.883 309.950,65.017 309.242,65.106 C308.535,65.196 307.859,65.285 307.219,65.374 C306.951,65.374 306.633,65.397 306.268,65.441 C305.903,65.486 305.542,65.508 305.185,65.508 C304.604,65.508 304.159,65.307 303.851,64.905 C303.542,64.503 303.443,63.990 303.554,63.364 L303.577,63.230 L294.130,63.230 L293.397,67.384 L308.941,67.384 C309.075,67.384 309.118,67.518 309.072,67.786 L312.503,63.900 C313.104,63.275 313.830,62.962 314.679,62.962 C314.813,62.962 314.954,62.985 315.103,63.029 C315.251,63.074 315.362,63.141 315.436,63.230 L320.410,67.317 C321.229,67.987 321.592,68.590 321.498,69.126 C321.490,69.171 321.417,69.327 321.281,69.595 C320.940,70.265 319.987,70.600 318.424,70.600 ZM286.514,53.984 L277.134,53.984 L276.047,60.148 L285.762,60.148 L286.577,55.525 L286.242,55.525 L286.514,53.984 ZM304.120,60.148 L305.018,55.056 C305.144,54.342 304.849,53.984 304.135,53.984 L295.760,53.984 L294.673,60.148 L304.120,60.148 ZM354.704,89.226 C355.317,88.914 355.959,88.757 356.629,88.757 C358.481,88.891 360.141,89.037 361.610,89.193 C363.079,89.350 364.401,89.517 365.576,89.695 C367.031,90.053 368.311,90.388 369.418,90.700 C370.523,91.013 371.470,91.348 372.256,91.705 C373.093,92.018 373.753,92.398 374.232,92.844 C374.712,93.291 375.065,93.760 375.291,94.251 C375.517,94.743 375.681,95.268 375.784,95.826 C375.886,96.385 375.882,96.976 375.772,97.601 C375.630,98.405 375.324,99.253 374.854,100.147 C374.534,100.951 374.005,101.665 373.270,102.291 C372.999,102.559 372.712,102.794 372.409,102.995 C372.105,103.196 371.748,103.452 371.336,103.765 C370.662,104.033 369.946,104.167 369.187,104.167 C368.606,104.167 368.071,104.033 367.584,103.765 C367.391,103.586 367.159,103.385 366.885,103.162 C366.612,102.938 366.373,102.648 366.168,102.291 C365.831,101.665 365.405,101.107 364.889,100.616 C364.372,100.124 363.915,99.611 363.520,99.075 C363.114,98.583 362.671,98.126 362.187,97.702 C361.703,97.278 361.191,96.820 360.653,96.328 L357.350,93.782 C356.804,93.336 356.208,92.911 355.564,92.509 C354.921,92.107 354.236,91.683 353.511,91.236 L353.606,90.700 C353.724,90.030 354.090,89.539 354.704,89.226 ZM395.215,76.630 L436.956,76.630 L437.011,76.697 L436.1000,76.764 L441.244,72.074 C441.424,71.806 441.672,71.605 441.986,71.471 C442.300,71.337 442.635,71.270 442.993,71.270 C443.484,71.270 443.859,71.427 444.116,71.739 L450.045,76.496 C450.759,77.256 451.066,77.926 450.963,78.506 C450.932,78.685 450.886,78.819 450.825,78.908 C450.357,79.534 449.430,79.846 448.046,79.846 L423.189,79.846 C421.823,81.008 420.554,82.124 419.383,83.196 C418.210,84.268 417.085,85.206 416.006,86.010 C414.025,87.618 412.026,89.204 410.008,90.767 C409.902,90.857 409.846,90.924 409.839,90.968 C409.790,91.236 409.923,91.370 410.236,91.370 C412.262,91.281 414.202,91.236 416.056,91.236 C417.909,91.236 419.738,91.192 421.541,91.102 L429.615,90.901 C429.152,89.472 428.629,88.077 428.043,86.714 C427.456,85.352 426.820,83.956 426.134,82.526 C426.197,82.169 426.393,81.879 426.723,81.655 C427.052,81.432 427.441,81.320 427.888,81.320 C428.111,81.320 428.286,81.343 428.412,81.387 C428.538,81.432 428.705,81.499 428.913,81.588 C431.440,82.705 433.562,83.844 435.278,85.005 C436.993,86.167 438.378,87.306 439.433,88.422 C440.580,89.762 441.402,91.058 441.896,92.308 C442.390,93.559 442.523,94.832 442.295,96.127 C442.090,97.289 441.712,98.293 441.160,99.142 C440.866,99.544 440.553,99.923 440.222,100.281 L439.230,101.353 C438.854,101.710 438.477,102.012 438.098,102.258 C437.719,102.503 437.310,102.737 436.869,102.961 C436.532,103.095 436.193,103.184 435.850,103.229 C435.507,103.273 435.157,103.296 434.800,103.296 C433.817,103.296 433.075,103.072 432.573,102.626 C432.344,102.402 432.154,102.090 432.001,101.688 C431.848,101.286 431.712,100.794 431.592,100.214 L430.775,95.725 C429.707,95.949 428.648,96.194 427.596,96.462 C426.544,96.730 425.480,96.998 424.406,97.266 L415.881,98.874 C414.575,99.186 413.264,99.466 411.948,99.712 C410.631,99.957 409.329,100.191 408.039,100.415 C406.793,100.638 405.585,100.839 404.415,101.018 C403.244,101.196 402.067,101.353 400.882,101.487 C400.523,101.487 400.361,101.397 400.393,101.219 C400.083,102.469 399.710,103.318 399.275,103.765 C398.972,104.211 398.742,104.502 398.585,104.636 C398.427,104.770 398.236,104.837 398.013,104.837 C397.789,104.837 397.597,104.658 397.437,104.301 C397.305,104.033 397.217,103.776 397.171,103.531 C397.125,103.285 397.067,102.983 396.996,102.626 L395.690,93.313 C395.669,93.179 395.674,93.023 395.706,92.844 C395.784,92.398 396.037,92.040 396.464,91.772 C396.891,91.504 397.358,91.326 397.865,91.236 C398.328,91.147 398.706,91.092 399.000,91.069 C399.294,91.047 399.605,90.991 399.934,90.901 C400.493,90.767 400.979,90.611 401.390,90.432 C401.802,90.254 402.072,90.053 402.201,89.829 C402.975,88.981 403.726,88.077 404.455,87.116 C405.182,86.156 405.864,85.139 406.499,84.067 C406.945,83.308 407.338,82.605 407.676,81.957 C408.013,81.310 408.382,80.606 408.784,79.846 L394.647,79.846 C394.200,79.846 393.861,79.679 393.631,79.344 C393.400,79.009 393.316,78.663 393.379,78.305 C393.457,77.859 393.671,77.468 394.020,77.133 C394.370,76.798 394.768,76.630 395.215,76.630 Z"/>
<path fill-rule="evenodd"  fill="rgb(255, 255, 255)"
 d="M451.708,119.400 C451.653,119.712 451.504,119.994 451.260,120.245 C451.016,120.497 450.695,120.622 450.297,120.622 C450.071,120.622 449.864,120.570 449.674,120.466 L449.700,120.466 C449.602,120.432 449.503,120.401 449.404,120.375 C449.305,120.349 449.220,120.336 449.151,120.336 C449.030,120.336 448.888,120.380 448.725,120.466 C448.563,120.553 448.428,120.648 448.324,120.752 C448.411,121.238 448.406,121.758 448.309,122.312 C448.180,123.040 447.903,123.651 447.478,124.145 C447.053,124.639 446.550,125.038 445.967,125.341 C445.385,125.645 444.754,125.857 444.074,125.978 C443.394,126.100 442.742,126.160 442.118,126.160 C441.754,126.160 441.426,126.156 441.132,126.147 C440.839,126.139 440.553,126.091 440.274,126.004 C440.079,126.126 439.895,126.260 439.722,126.407 C439.548,126.555 439.445,126.724 439.411,126.914 C439.384,127.070 439.499,127.200 439.758,127.304 C440.017,127.408 440.346,127.486 440.744,127.538 C441.142,127.590 441.573,127.629 442.037,127.655 C442.500,127.681 442.922,127.694 443.304,127.694 L444.526,127.694 C444.942,127.694 445.363,127.738 445.789,127.824 C446.216,127.911 446.599,128.050 446.938,128.240 C447.277,128.431 447.540,128.687 447.726,129.007 C447.912,129.328 447.963,129.731 447.877,130.216 C447.730,131.048 447.411,131.776 446.920,132.400 C446.428,133.024 445.839,133.540 445.152,133.947 C444.465,134.354 443.718,134.658 442.912,134.857 C442.105,135.056 441.312,135.156 440.532,135.156 C439.925,135.156 439.281,135.095 438.601,134.974 C437.920,134.853 437.310,134.649 436.772,134.363 C436.233,134.077 435.810,133.696 435.504,133.219 C435.198,132.742 435.108,132.149 435.233,131.438 C435.313,130.987 435.500,130.593 435.793,130.255 C436.087,129.917 436.470,129.636 436.943,129.410 C436.763,129.254 436.623,129.111 436.525,128.981 C436.426,128.851 436.360,128.713 436.325,128.565 C436.290,128.418 436.275,128.258 436.280,128.084 C436.284,127.911 436.310,127.694 436.356,127.434 C436.441,126.949 436.690,126.520 437.102,126.147 C437.515,125.775 437.957,125.476 438.431,125.250 C437.972,124.904 437.636,124.475 437.423,123.963 C437.209,123.452 437.158,122.884 437.268,122.260 C437.409,121.463 437.674,120.791 438.065,120.245 C438.456,119.699 438.933,119.257 439.495,118.919 C440.057,118.581 440.685,118.339 441.378,118.191 C442.071,118.044 442.799,117.970 443.562,117.970 C444.377,117.970 445.172,118.105 445.948,118.373 C446.724,118.642 447.339,119.062 447.793,119.634 C448.134,119.270 448.554,118.928 449.053,118.607 C449.551,118.287 450.052,118.126 450.555,118.126 C451.473,118.126 451.858,118.551 451.708,119.400 ZM438.327,131.438 C438.272,131.750 438.314,132.032 438.451,132.283 C438.589,132.534 438.787,132.742 439.043,132.907 C439.300,133.072 439.586,133.197 439.900,133.284 C440.214,133.371 440.527,133.414 440.839,133.414 C441.168,133.414 441.538,133.384 441.947,133.323 C442.356,133.262 442.744,133.154 443.109,132.998 C443.475,132.842 443.792,132.638 444.062,132.387 C444.332,132.136 444.500,131.819 444.567,131.438 C444.604,131.230 444.515,131.070 444.301,130.957 C444.087,130.844 443.829,130.762 443.526,130.710 C443.223,130.658 442.912,130.628 442.593,130.619 C442.273,130.610 442.036,130.606 441.880,130.606 L440.667,130.554 C440.480,130.537 440.282,130.524 440.076,130.515 C439.870,130.506 439.691,130.485 439.542,130.450 C439.318,130.537 439.071,130.662 438.799,130.827 C438.527,130.992 438.370,131.195 438.327,131.438 ZM444.636,120.505 C444.548,120.271 444.395,120.081 444.178,119.933 C443.961,119.786 443.654,119.712 443.255,119.712 C442.839,119.712 442.497,119.786 442.228,119.933 C441.959,120.081 441.740,120.271 441.568,120.505 C441.397,120.739 441.267,121.008 441.179,121.311 C441.091,121.615 441.019,121.922 440.964,122.234 C440.857,122.841 440.896,123.361 441.079,123.794 C441.263,124.228 441.710,124.444 442.421,124.444 C443.131,124.444 443.648,124.241 443.972,123.833 C444.294,123.426 444.513,122.902 444.626,122.260 C444.681,121.948 444.719,121.636 444.739,121.324 C444.759,121.012 444.725,120.739 444.636,120.505 ZM433.868,130.190 L427.654,130.190 C427.567,130.190 427.531,130.147 427.547,130.060 L427.698,129.202 C427.707,129.150 427.749,129.107 427.825,129.072 L429.189,128.708 L430.207,122.936 C430.253,122.676 430.278,122.408 430.284,122.130 C430.290,121.853 430.251,121.602 430.170,121.376 C430.088,121.151 429.956,120.965 429.774,120.817 C429.592,120.670 429.337,120.596 429.007,120.596 C428.383,120.596 427.805,120.752 427.274,121.064 C426.742,121.376 426.237,121.758 425.759,122.208 L424.613,128.708 C424.794,128.760 424.999,128.825 425.229,128.903 C425.458,128.981 425.664,129.038 425.849,129.072 C425.926,129.124 425.962,129.168 425.956,129.202 L425.805,130.060 C425.789,130.147 425.730,130.190 425.626,130.190 L419.438,130.190 C419.334,130.190 419.289,130.147 419.305,130.060 L419.456,129.202 C419.465,129.150 419.516,129.107 419.609,129.072 L420.973,128.708 L422.619,119.374 L421.397,119.374 C421.293,119.374 421.248,119.331 421.264,119.244 L421.411,118.412 C421.417,118.378 421.439,118.347 421.478,118.321 C421.517,118.295 421.554,118.282 421.589,118.282 L426.409,117.788 C426.495,117.788 426.531,117.832 426.516,117.918 L426.195,119.738 C426.829,119.288 427.518,118.893 428.262,118.555 C429.007,118.217 429.743,118.048 430.471,118.048 C431.043,118.048 431.566,118.152 432.041,118.360 C432.515,118.568 432.916,118.854 433.241,119.218 C433.567,119.582 433.800,120.007 433.940,120.492 C434.079,120.978 434.102,121.489 434.007,122.026 L432.829,128.708 C433.045,128.760 433.263,128.825 433.484,128.903 C433.704,128.981 433.906,129.038 434.091,129.072 C434.154,129.107 434.181,129.150 434.172,129.202 L434.021,130.060 C434.005,130.147 433.954,130.190 433.868,130.190 ZM419.132,114.967 C418.967,115.219 418.767,115.440 418.534,115.630 C418.301,115.821 418.041,115.973 417.752,116.085 C417.464,116.198 417.164,116.254 416.852,116.254 C416.540,116.254 416.259,116.198 416.010,116.085 C415.761,115.973 415.554,115.821 415.388,115.630 C415.223,115.440 415.101,115.219 415.024,114.967 C414.947,114.716 414.935,114.443 414.987,114.148 C415.039,113.854 415.148,113.576 415.316,113.316 C415.483,113.056 415.682,112.831 415.916,112.640 C416.148,112.450 416.409,112.298 416.698,112.185 C416.986,112.073 417.287,112.016 417.599,112.016 C417.911,112.016 418.191,112.073 418.440,112.185 C418.688,112.298 418.896,112.450 419.062,112.640 C419.227,112.831 419.348,113.056 419.424,113.316 C419.499,113.576 419.511,113.854 419.459,114.148 C419.407,114.443 419.298,114.716 419.132,114.967 ZM418.664,117.918 L416.761,128.708 C416.943,128.760 417.144,128.825 417.364,128.903 C417.584,128.981 417.795,129.038 417.997,129.072 C418.043,129.107 418.061,129.150 418.052,129.202 L417.901,130.060 C417.885,130.147 417.843,130.190 417.774,130.190 L411.560,130.190 C411.456,130.190 411.411,130.147 411.427,130.060 L411.578,129.202 C411.587,129.150 411.630,129.107 411.705,129.072 L413.095,128.708 L414.741,119.374 L413.519,119.374 C413.415,119.374 413.371,119.331 413.386,119.244 L413.533,118.412 C413.539,118.378 413.562,118.347 413.601,118.321 C413.640,118.295 413.677,118.282 413.712,118.282 L418.531,117.788 C418.635,117.788 418.679,117.832 418.664,117.918 ZM409.886,129.072 C409.963,129.124 409.998,129.168 409.993,129.202 L409.841,130.060 C409.826,130.147 409.767,130.190 409.663,130.190 L403.475,130.190 C403.371,130.190 403.326,130.147 403.341,130.060 L403.493,129.202 C403.502,129.150 403.553,129.107 403.646,129.072 L404.984,128.708 L406.001,122.936 C406.047,122.676 406.069,122.408 406.066,122.130 C406.062,121.853 406.020,121.602 405.938,121.376 C405.857,121.151 405.725,120.965 405.543,120.817 C405.361,120.670 405.114,120.596 404.802,120.596 C404.126,120.596 403.509,120.774 402.953,121.129 C402.396,121.485 401.874,121.914 401.387,122.416 L400.278,128.708 C400.476,128.760 400.682,128.825 400.893,128.903 C401.105,128.981 401.312,129.038 401.514,129.072 C401.577,129.107 401.604,129.150 401.595,129.202 L401.443,130.060 C401.428,130.147 401.377,130.190 401.291,130.190 L395.051,130.190 C394.981,130.190 394.954,130.147 394.969,130.060 L395.121,129.202 C395.126,129.168 395.160,129.124 395.222,129.072 L396.612,128.708 L397.629,122.936 C397.675,122.676 397.701,122.408 397.707,122.130 C397.712,121.853 397.674,121.602 397.592,121.376 C397.511,121.151 397.379,120.965 397.197,120.817 C397.015,120.670 396.759,120.596 396.430,120.596 C395.806,120.596 395.228,120.752 394.697,121.064 C394.165,121.376 393.660,121.758 393.182,122.208 L392.036,128.708 C392.234,128.760 392.444,128.825 392.664,128.903 C392.884,128.981 393.087,129.038 393.272,129.072 C393.352,129.107 393.388,129.150 393.379,129.202 L393.227,130.060 C393.212,130.147 393.153,130.190 393.049,130.190 L386.861,130.190 C386.757,130.190 386.712,130.147 386.727,130.060 L386.879,129.202 C386.884,129.168 386.936,129.124 387.032,129.072 L388.396,128.708 L390.041,119.374 L388.819,119.374 C388.733,119.374 388.697,119.331 388.713,119.244 L388.859,118.412 C388.874,118.326 388.925,118.282 389.012,118.282 L393.805,117.788 C393.909,117.788 393.954,117.832 393.938,117.918 L393.617,119.738 C394.234,119.288 394.919,118.893 395.672,118.555 C396.425,118.217 397.165,118.048 397.893,118.048 C398.673,118.048 399.374,118.252 399.996,118.659 C400.617,119.067 401.061,119.600 401.326,120.258 C402.036,119.669 402.816,119.153 403.665,118.711 C404.515,118.269 405.381,118.048 406.265,118.048 C406.837,118.048 407.365,118.152 407.848,118.360 C408.332,118.568 408.736,118.854 409.062,119.218 C409.388,119.582 409.625,120.007 409.773,120.492 C409.922,120.978 409.949,121.489 409.854,122.026 L408.676,128.708 C408.857,128.760 409.054,128.825 409.265,128.903 C409.477,128.981 409.684,129.038 409.886,129.072 ZM385.236,124.145 C385.146,124.605 385.060,125.068 384.977,125.536 L384.478,128.370 C384.429,128.648 384.543,128.786 384.820,128.786 C384.959,128.786 385.103,128.752 385.254,128.682 C385.365,128.648 385.430,128.674 385.449,128.760 L385.607,129.488 C385.635,129.523 385.634,129.553 385.603,129.579 C385.573,129.605 385.538,129.627 385.501,129.644 C384.955,129.887 384.452,130.060 383.992,130.164 C383.532,130.268 383.033,130.320 382.496,130.320 C382.097,130.320 381.780,130.225 381.545,130.034 C381.310,129.844 381.141,129.601 381.037,129.306 C380.583,129.618 380.091,129.874 379.562,130.073 C379.033,130.272 378.509,130.372 377.989,130.372 C377.417,130.372 376.883,130.303 376.387,130.164 C375.892,130.025 375.478,129.818 375.145,129.540 C374.813,129.263 374.572,128.908 374.423,128.474 C374.274,128.041 374.253,127.521 374.360,126.914 C374.507,126.082 374.850,125.389 375.390,124.834 C375.930,124.280 376.564,123.829 377.292,123.482 C378.021,123.136 378.798,122.880 379.625,122.715 C380.451,122.551 381.226,122.434 381.949,122.364 L382.008,122.026 C382.060,121.732 382.084,121.446 382.081,121.168 C382.078,120.891 382.032,120.640 381.941,120.414 C381.851,120.189 381.696,120.011 381.476,119.881 C381.257,119.751 380.965,119.686 380.601,119.686 C380.081,119.686 379.622,119.808 379.224,120.050 C378.826,120.293 378.482,120.544 378.194,120.804 C377.911,121.030 377.655,121.229 377.425,121.402 C377.195,121.576 376.924,121.662 376.612,121.662 C376.352,121.662 376.143,121.593 375.986,121.454 C375.828,121.316 375.776,121.099 375.828,120.804 C375.913,120.319 376.170,119.894 376.598,119.530 C377.027,119.166 377.521,118.867 378.082,118.633 C378.644,118.399 379.211,118.226 379.786,118.113 C380.360,118.001 380.847,117.944 381.246,117.944 C384.643,117.944 386.061,119.539 385.499,122.728 C385.413,123.214 385.325,123.686 385.236,124.145 ZM380.506,123.911 C380.095,124.076 379.725,124.284 379.395,124.535 C379.064,124.787 378.782,125.086 378.548,125.432 C378.313,125.779 378.158,126.169 378.081,126.602 C378.041,126.828 378.018,127.062 378.010,127.304 C378.002,127.547 378.033,127.764 378.103,127.954 C378.173,128.145 378.284,128.305 378.434,128.435 C378.584,128.565 378.807,128.630 379.102,128.630 C379.431,128.630 379.757,128.574 380.080,128.461 C380.404,128.349 380.693,128.206 380.949,128.032 L381.747,123.508 C381.330,123.612 380.916,123.747 380.506,123.911 ZM373.644,123.014 L372.032,123.456 L370.868,130.060 C370.852,130.147 370.801,130.190 370.715,130.190 L369.493,130.190 C369.441,130.190 369.400,130.173 369.372,130.138 L368.601,128.760 C366.951,129.956 365.234,130.554 363.449,130.554 C362.010,130.554 360.779,130.311 359.755,129.826 C358.731,129.341 357.922,128.674 357.326,127.824 C356.730,126.975 356.342,125.983 356.161,124.847 C355.980,123.712 356.004,122.494 356.233,121.194 C356.450,119.964 356.866,118.785 357.480,117.658 C358.095,116.532 358.859,115.539 359.773,114.681 C360.687,113.823 361.735,113.139 362.918,112.627 C364.100,112.116 365.367,111.860 366.719,111.860 C367.169,111.860 367.651,111.882 368.163,111.925 C368.675,111.969 369.184,112.034 369.689,112.120 C370.194,112.207 370.682,112.311 371.155,112.432 C371.628,112.554 372.058,112.692 372.447,112.848 C372.516,112.848 372.546,112.874 372.537,112.926 L373.111,115.864 C373.127,115.968 373.089,116.038 372.996,116.072 L370.844,116.774 C370.751,116.809 370.695,116.783 370.676,116.696 C370.462,116.142 370.255,115.669 370.055,115.279 C369.855,114.889 369.607,114.577 369.310,114.343 C369.013,114.109 368.636,113.940 368.177,113.836 C367.719,113.732 367.135,113.680 366.424,113.680 C365.523,113.680 364.738,113.949 364.072,114.486 C363.405,115.024 362.839,115.678 362.374,116.449 C361.908,117.221 361.538,118.040 361.264,118.906 C360.990,119.773 360.795,120.536 360.679,121.194 C360.557,121.888 360.461,122.672 360.394,123.547 C360.326,124.423 360.380,125.246 360.557,126.017 C360.732,126.789 361.064,127.439 361.552,127.967 C362.039,128.496 362.777,128.760 363.765,128.760 C365.221,128.760 366.588,128.284 367.865,127.330 L368.543,123.482 L366.936,123.014 C366.873,122.980 366.846,122.936 366.855,122.884 L367.034,121.870 C367.049,121.784 367.100,121.740 367.187,121.740 L373.817,121.740 C373.921,121.740 373.965,121.784 373.950,121.870 L373.771,122.884 C373.762,122.936 373.719,122.980 373.644,123.014 ZM345.040,126.433 C344.661,127.205 344.178,127.881 343.590,128.461 C343.002,129.042 342.314,129.506 341.525,129.852 C340.736,130.199 339.856,130.372 338.885,130.372 C338.400,130.372 337.942,130.290 337.512,130.125 C337.081,129.960 336.690,129.748 336.337,129.488 L335.663,133.310 C335.845,133.362 336.046,133.427 336.266,133.505 C336.486,133.583 336.697,133.639 336.899,133.674 C336.976,133.726 337.012,133.769 337.006,133.804 L336.850,134.688 C336.835,134.775 336.775,134.818 336.671,134.818 L330.483,134.818 C330.379,134.818 330.335,134.775 330.350,134.688 L330.506,133.804 C330.515,133.752 330.566,133.709 330.659,133.674 L331.997,133.310 L334.454,119.374 L333.232,119.374 C333.145,119.374 333.110,119.331 333.126,119.244 L333.272,118.412 C333.278,118.378 333.301,118.347 333.340,118.321 C333.379,118.295 333.407,118.282 333.425,118.282 L338.244,117.788 C338.348,117.788 338.393,117.832 338.377,117.918 L338.189,118.984 C338.675,118.690 339.180,118.451 339.706,118.269 C340.232,118.087 340.764,117.996 341.302,117.996 C342.255,117.996 343.056,118.148 343.704,118.451 C344.353,118.755 344.859,119.175 345.224,119.712 C345.588,120.250 345.818,120.887 345.914,121.623 C346.009,122.360 345.982,123.153 345.833,124.002 C345.683,124.852 345.418,125.662 345.040,126.433 ZM342.266,121.298 C342.164,120.848 341.961,120.471 341.660,120.167 C341.358,119.864 340.912,119.712 340.323,119.712 C339.456,119.712 338.650,120.007 337.905,120.596 L336.635,127.798 C336.904,128.041 337.211,128.240 337.557,128.396 C337.902,128.552 338.282,128.630 338.698,128.630 C339.270,128.630 339.762,128.474 340.172,128.162 C340.582,127.850 340.927,127.469 341.205,127.018 C341.484,126.568 341.700,126.082 341.852,125.562 C342.005,125.042 342.117,124.574 342.191,124.158 C342.264,123.742 342.321,123.274 342.360,122.754 C342.400,122.234 342.369,121.749 342.266,121.298 ZM330.994,114.967 C330.828,115.219 330.629,115.440 330.396,115.630 C330.163,115.821 329.902,115.973 329.614,116.085 C329.325,116.198 329.025,116.254 328.713,116.254 C328.401,116.254 328.121,116.198 327.872,116.085 C327.623,115.973 327.416,115.821 327.250,115.630 C327.084,115.440 326.963,115.219 326.886,114.967 C326.809,114.716 326.797,114.443 326.849,114.148 C326.901,113.854 327.010,113.576 327.177,113.316 C327.344,113.056 327.544,112.831 327.777,112.640 C328.010,112.450 328.271,112.298 328.559,112.185 C328.848,112.073 329.148,112.016 329.460,112.016 C329.772,112.016 330.053,112.073 330.301,112.185 C330.550,112.298 330.757,112.450 330.923,112.640 C331.089,112.831 331.210,113.056 331.285,113.316 C331.361,113.576 331.373,113.854 331.321,114.148 C331.269,114.443 331.160,114.716 330.994,114.967 ZM330.526,117.918 L328.623,128.708 C328.804,128.760 329.005,128.825 329.225,128.903 C329.446,128.981 329.657,129.038 329.859,129.072 C329.905,129.107 329.923,129.150 329.914,129.202 L329.763,130.060 C329.747,130.147 329.705,130.190 329.636,130.190 L323.422,130.190 C323.318,130.190 323.273,130.147 323.289,130.060 L323.440,129.202 C323.449,129.150 323.491,129.107 323.567,129.072 L324.957,128.708 L326.603,119.374 L325.381,119.374 C325.277,119.374 325.232,119.331 325.248,119.244 L325.395,118.412 C325.401,118.378 325.423,118.347 325.462,118.321 C325.501,118.295 325.538,118.282 325.573,118.282 L330.393,117.788 C330.497,117.788 330.541,117.832 330.526,117.918 ZM325.141,113.290 C325.112,113.308 325.087,113.325 325.067,113.342 L322.905,113.810 L314.782,130.086 C314.735,130.155 314.686,130.190 314.634,130.190 L311.852,130.190 C311.800,130.190 311.763,130.155 311.740,130.086 L309.281,113.810 L307.387,113.342 C307.324,113.308 307.297,113.264 307.306,113.212 L307.457,112.354 C307.472,112.268 307.523,112.224 307.610,112.224 L315.384,112.224 C315.471,112.224 315.506,112.268 315.491,112.354 L315.340,113.212 C315.331,113.264 315.288,113.308 315.213,113.342 L313.259,113.810 L314.988,125.822 L320.955,113.810 C320.672,113.741 320.391,113.663 320.112,113.576 C319.832,113.490 319.567,113.420 319.316,113.368 C319.229,113.368 319.194,113.325 319.209,113.238 L319.365,112.354 C319.380,112.268 319.440,112.224 319.544,112.224 L325.238,112.224 C325.325,112.224 325.360,112.268 325.345,112.354 L325.194,113.212 C325.188,113.247 325.170,113.273 325.141,113.290 ZM295.746,124.145 C295.656,124.605 295.570,125.068 295.487,125.536 L294.988,128.370 C294.938,128.648 295.053,128.786 295.330,128.786 C295.469,128.786 295.613,128.752 295.764,128.682 C295.874,128.648 295.939,128.674 295.959,128.760 L296.117,129.488 C296.145,129.523 296.144,129.553 296.113,129.579 C296.082,129.605 296.048,129.627 296.011,129.644 C295.465,129.887 294.962,130.060 294.502,130.164 C294.041,130.268 293.543,130.320 293.006,130.320 C292.607,130.320 292.290,130.225 292.055,130.034 C291.820,129.844 291.651,129.601 291.547,129.306 C291.093,129.618 290.601,129.874 290.072,130.073 C289.543,130.272 289.019,130.372 288.499,130.372 C287.927,130.372 287.393,130.303 286.897,130.164 C286.402,130.025 285.988,129.818 285.655,129.540 C285.323,129.263 285.082,128.908 284.933,128.474 C284.784,128.041 284.763,127.521 284.870,126.914 C285.017,126.082 285.360,125.389 285.900,124.834 C286.440,124.280 287.074,123.829 287.802,123.482 C288.531,123.136 289.308,122.880 290.135,122.715 C290.961,122.551 291.736,122.434 292.459,122.364 L292.518,122.026 C292.570,121.732 292.594,121.446 292.591,121.168 C292.588,120.891 292.542,120.640 292.451,120.414 C292.361,120.189 292.206,120.011 291.986,119.881 C291.766,119.751 291.475,119.686 291.111,119.686 C290.591,119.686 290.132,119.808 289.734,120.050 C289.335,120.293 288.992,120.544 288.704,120.804 C288.421,121.030 288.165,121.229 287.935,121.402 C287.705,121.576 287.434,121.662 287.122,121.662 C286.862,121.662 286.653,121.593 286.496,121.454 C286.338,121.316 286.286,121.099 286.338,120.804 C286.423,120.319 286.680,119.894 287.108,119.530 C287.537,119.166 288.031,118.867 288.592,118.633 C289.153,118.399 289.721,118.226 290.296,118.113 C290.870,118.001 291.357,117.944 291.756,117.944 C295.153,117.944 296.571,119.539 296.009,122.728 C295.923,123.214 295.835,123.686 295.746,124.145 ZM291.016,123.911 C290.605,124.076 290.235,124.284 289.905,124.535 C289.574,124.787 289.292,125.086 289.058,125.432 C288.823,125.779 288.668,126.169 288.591,126.602 C288.551,126.828 288.528,127.062 288.520,127.304 C288.512,127.547 288.542,127.764 288.613,127.954 C288.683,128.145 288.794,128.305 288.944,128.435 C289.094,128.565 289.317,128.630 289.612,128.630 C289.941,128.630 290.267,128.574 290.590,128.461 C290.914,128.349 291.203,128.206 291.459,128.032 L292.257,123.508 C291.840,123.612 291.426,123.747 291.016,123.911 ZM283.987,114.967 C283.821,115.219 283.622,115.440 283.389,115.630 C283.156,115.821 282.896,115.973 282.607,116.085 C282.319,116.198 282.018,116.254 281.706,116.254 C281.394,116.254 281.114,116.198 280.865,116.085 C280.616,115.973 280.409,115.821 280.243,115.630 C280.077,115.440 279.956,115.219 279.879,114.967 C279.802,114.716 279.790,114.443 279.842,114.148 C279.894,113.854 280.003,113.576 280.170,113.316 C280.337,113.056 280.537,112.831 280.770,112.640 C281.003,112.450 281.264,112.298 281.552,112.185 C281.841,112.073 282.142,112.016 282.454,112.016 C282.766,112.016 283.046,112.073 283.295,112.185 C283.543,112.298 283.751,112.450 283.916,112.640 C284.082,112.831 284.203,113.056 284.278,113.316 C284.354,113.576 284.366,113.854 284.314,114.148 C284.262,114.443 284.153,114.716 283.987,114.967 ZM283.519,117.918 L281.616,128.708 C281.797,128.760 281.999,128.825 282.219,128.903 C282.439,128.981 282.650,129.038 282.852,129.072 C282.898,129.107 282.916,129.150 282.907,129.202 L282.756,130.060 C282.740,130.147 282.698,130.190 282.629,130.190 L276.415,130.190 C276.311,130.190 276.266,130.147 276.282,130.060 L276.433,129.202 C276.442,129.150 276.485,129.107 276.560,129.072 L277.950,128.708 L279.596,119.374 L278.374,119.374 C278.270,119.374 278.226,119.331 278.241,119.244 L278.388,118.412 C278.394,118.378 278.417,118.347 278.456,118.321 C278.495,118.295 278.532,118.282 278.567,118.282 L283.386,117.788 C283.490,117.788 283.534,117.832 283.519,117.918 ZM275.487,121.298 L274.975,121.402 C274.888,121.402 274.841,121.376 274.832,121.324 C274.611,120.614 274.226,120.167 273.677,119.985 C273.129,119.803 272.465,119.712 271.685,119.712 C271.546,119.712 271.393,119.721 271.225,119.738 C271.057,119.756 270.891,119.786 270.728,119.829 C270.564,119.873 270.423,119.938 270.304,120.024 C270.184,120.111 270.113,120.224 270.088,120.362 C270.042,120.622 270.078,120.861 270.196,121.077 C270.314,121.294 270.477,121.498 270.686,121.688 C270.895,121.879 271.141,122.057 271.424,122.221 C271.707,122.386 271.991,122.546 272.276,122.702 C272.669,122.928 273.065,123.162 273.465,123.404 C273.864,123.647 274.219,123.920 274.529,124.223 C274.839,124.527 275.073,124.873 275.230,125.263 C275.386,125.653 275.419,126.108 275.327,126.628 C275.220,127.235 275.001,127.768 274.668,128.227 C274.336,128.687 273.928,129.081 273.446,129.410 C272.963,129.740 272.434,129.986 271.859,130.151 C271.284,130.316 270.702,130.398 270.113,130.398 C269.818,130.398 269.488,130.376 269.123,130.333 C268.758,130.290 268.391,130.229 268.024,130.151 C267.656,130.073 267.303,129.991 266.963,129.904 C266.622,129.818 266.323,129.722 266.064,129.618 C265.994,129.618 265.966,129.584 265.978,129.514 L265.993,127.070 C266.014,126.949 266.060,126.888 266.129,126.888 L266.642,126.784 C266.676,126.784 266.714,126.789 266.756,126.797 C266.798,126.806 266.824,126.828 266.836,126.862 C266.911,127.122 267.006,127.369 267.121,127.603 C267.236,127.837 267.382,128.041 267.560,128.214 C267.648,128.301 267.818,128.370 268.069,128.422 C268.319,128.474 268.589,128.518 268.878,128.552 C269.166,128.587 269.453,128.609 269.737,128.617 C270.022,128.626 270.242,128.630 270.398,128.630 C270.519,128.630 270.681,128.626 270.881,128.617 C271.082,128.609 271.282,128.583 271.480,128.539 C271.678,128.496 271.855,128.431 272.009,128.344 C272.163,128.258 272.253,128.136 272.281,127.980 C272.326,127.720 272.171,127.473 271.813,127.239 C271.456,127.005 271.043,126.741 270.575,126.446 C270.150,126.204 269.708,125.935 269.249,125.640 C268.789,125.346 268.376,125.008 268.010,124.626 C267.644,124.245 267.364,123.816 267.171,123.339 C266.978,122.863 266.935,122.321 267.042,121.714 C267.136,121.177 267.341,120.679 267.656,120.219 C267.971,119.760 268.357,119.366 268.814,119.036 C269.270,118.707 269.771,118.451 270.314,118.269 C270.858,118.087 271.415,117.996 271.987,117.996 C272.213,117.996 272.490,118.022 272.819,118.074 C273.147,118.126 273.477,118.200 273.807,118.295 C274.137,118.391 274.455,118.499 274.763,118.620 C275.071,118.742 275.317,118.872 275.500,119.010 L275.671,121.142 C275.687,121.246 275.625,121.298 275.487,121.298 ZM264.456,130.190 L257.098,130.190 C256.994,130.190 256.949,130.147 256.964,130.060 L257.116,129.202 C257.131,129.116 257.182,129.072 257.269,129.072 L258.919,128.708 L258.308,123.768 L253.342,123.768 L250.880,128.734 L252.324,129.098 C252.370,129.133 252.388,129.176 252.379,129.228 L252.232,130.060 C252.217,130.147 252.175,130.190 252.106,130.190 L247.010,130.190 C246.906,130.190 246.861,130.147 246.876,130.060 L247.037,129.150 C247.046,129.098 247.097,129.055 247.190,129.020 L248.701,128.708 L257.080,112.302 C257.106,112.250 257.154,112.224 257.224,112.224 L260.526,112.224 C260.595,112.224 260.640,112.259 260.663,112.328 L262.953,128.682 C263.221,128.734 263.505,128.799 263.803,128.877 C264.101,128.955 264.393,129.020 264.679,129.072 C264.765,129.072 264.801,129.116 264.786,129.202 L264.634,130.060 C264.619,130.147 264.560,130.190 264.456,130.190 ZM257.693,118.776 C257.578,117.806 257.461,116.774 257.342,115.682 L254.305,121.844 L258.101,121.844 C257.944,120.770 257.808,119.747 257.693,118.776 Z"/>
</svg>