<svg 
 xmlns="http://www.w3.org/2000/svg"
 xmlns:xlink="http://www.w3.org/1999/xlink"
 width="27px" height="27px">
<defs>
<linearGradient id="PSgrad_0" x1="0%" x2="0%" y1="100%" y2="0%">
  <stop offset="0%" stop-color="rgb(217,160,100)" stop-opacity="1" />
  <stop offset="70%" stop-color="rgb(255,216,161)" stop-opacity="1" />
</linearGradient>

</defs>
<path fill-rule="evenodd"  fill="url(#PSgrad_0)"
 d="M24.320,19.633 L24.287,19.686 L24.676,24.261 C24.676,24.268 24.677,24.275 24.677,24.282 C24.745,25.216 24.042,26.028 23.108,26.096 L22.985,26.100 L13.311,26.100 C5.986,26.100 -0.051,20.206 -0.001,12.956 C0.051,5.498 6.333,-0.415 13.822,0.019 C20.249,0.390 25.511,5.505 26.054,11.917 C26.289,14.606 25.683,17.303 24.320,19.633 ZM22.673,12.203 C22.273,7.474 18.370,3.680 13.625,3.405 L13.625,3.405 L13.381,3.394 C7.942,3.214 3.428,7.540 3.391,12.980 C3.354,18.324 7.846,22.707 13.311,22.707 L21.139,22.707 L20.860,19.412 C20.832,19.082 20.903,18.751 21.060,18.461 L21.132,18.339 C22.322,16.525 22.865,14.363 22.673,12.203 ZM15.291,15.239 C14.398,15.241 13.657,14.551 13.595,13.660 L13.591,13.539 L13.591,11.410 C13.591,10.474 14.350,9.714 15.287,9.714 C16.183,9.714 16.917,10.409 16.979,11.289 L16.983,11.410 L16.983,13.539 C16.985,14.476 16.228,15.237 15.291,15.239 ZM9.613,15.239 C8.721,15.241 7.980,14.551 7.918,13.660 L7.914,13.539 L7.914,11.410 C7.914,10.474 8.673,9.714 9.610,9.714 C10.505,9.714 11.240,10.409 11.302,11.289 L11.306,11.410 L11.306,13.539 C11.308,14.476 10.550,15.237 9.613,15.239 Z"/>
</svg>