<?xml version="1.0" encoding="utf-8"?>
<!-- Generator: Adobe Illustrator 27.8.1, SVG Export Plug-In . SVG Version: 6.00 Build 0)  -->
<svg version="1.1" id="图层_1" xmlns="http://www.w3.org/2000/svg" xmlns:xlink="http://www.w3.org/1999/xlink" x="0px" y="0px"
	 viewBox="0 0 181.9 165.9" style="enable-background:new 0 0 181.9 165.9;" xml:space="preserve">
<path d="M163.1,165.9l-6.6-18.8h-30.9l-6.6,18.8H99.4l30-78.8h22.5l30,78.8H163.1L163.1,165.9z M141.6,104.1l-11.2,29.1h22.5
	L141.6,104.1z M91.9,133.1l8.4-19.7c-2.8-1.9-5.6-3.8-7.5-5.6c14.1-15.9,25.3-35.6,33.7-59.1h25.3V30H80.6l14.1-4.7
	C92.8,18.8,88.1,8.4,83.4,0L62.8,6.6c3.8,7.5,7.5,16.9,9.4,23.4H2.8v18.7h26.2c8.4,23.4,20.6,43.1,34.7,59.1
	C46.9,120.9,25.3,130.3,0,136.9c3.7,4.7,9.4,14.1,12.2,18.8c26.2-7.5,48.8-18.8,66.6-33.8C82.5,125.6,87.2,129.4,91.9,133.1
	L91.9,133.1z M48.8,48.7H105c-6.6,17.8-15.9,32.8-27.2,45.9C65.6,81.6,55.3,66.6,48.8,48.7z"/>
</svg>
