<svg 
 xmlns="http://www.w3.org/2000/svg"
 xmlns:xlink="http://www.w3.org/1999/xlink"
 width="641px" height="121px">
<path fill-rule="evenodd"  fill="rgb(52, 144, 249)"
 d="M585.730,14.329 L585.730,50.344 L639.636,50.344 L639.636,61.594 L585.730,61.594 L585.730,106.750 L639.636,106.750 L639.636,117.1000 L574.246,117.1000 L574.246,3.079 L640.105,3.079 L640.105,14.329 L585.730,14.329 ZM501.668,110.031 C517.762,110.031 531.225,103.730 542.058,91.125 L551.121,98.000 C545.391,105.293 538.243,110.930 529.676,114.914 C521.108,118.898 511.537,120.891 500.965,120.891 C480.860,120.891 465.001,114.199 453.387,100.813 C443.647,89.511 438.778,75.865 438.778,59.875 C438.778,43.053 444.676,28.899 456.473,17.415 C468.270,5.931 483.048,0.188 500.809,0.188 C511.537,0.188 521.225,2.311 529.871,6.556 C538.516,10.801 545.600,16.751 551.121,24.407 L542.058,31.360 C537.058,24.850 531.055,19.915 524.051,16.555 C517.045,13.196 509.350,11.516 500.965,11.516 C491.798,11.516 483.309,13.717 475.496,18.118 C467.684,22.520 461.629,28.430 457.332,35.852 C453.036,43.274 450.887,51.621 450.887,60.891 C450.887,74.902 455.692,86.594 465.301,95.969 C474.910,105.344 487.032,110.031 501.668,110.031 ZM406.278,3.079 L417.762,3.079 L417.762,117.1000 L406.278,117.1000 L406.278,3.079 ZM324.521,120.891 C307.479,120.891 293.094,115.058 281.368,103.391 C269.642,91.725 263.779,77.610 263.779,61.047 C263.779,50.006 266.450,39.772 271.792,30.344 C277.134,20.918 284.416,13.535 293.641,8.196 C302.866,2.858 312.846,0.188 323.583,0.188 C340.989,0.188 355.556,5.996 367.282,17.610 C379.008,29.225 384.872,43.522 384.872,60.500 C384.872,77.324 379.021,91.594 367.321,103.313 C355.621,115.031 341.354,120.891 324.521,120.891 ZM366.619,35.715 C362.367,28.340 356.381,22.438 348.661,18.007 C340.941,13.576 332.751,11.360 324.091,11.360 C315.588,11.360 307.528,13.576 299.912,18.007 C292.295,22.438 286.347,28.406 282.070,35.911 C277.793,43.417 275.654,51.782 275.654,61.008 C275.654,74.665 280.388,86.198 289.856,95.606 C299.323,105.015 310.736,109.719 324.091,109.719 C333.011,109.719 341.266,107.556 348.857,103.230 C356.447,98.903 362.367,92.988 366.619,85.482 C370.871,77.976 372.997,69.636 372.997,60.461 C372.997,51.340 370.871,43.091 366.619,35.715 ZM197.061,117.1000 L147.764,3.079 L160.264,3.079 L198.351,91.865 L237.061,3.079 L249.561,3.079 L199.561,117.1000 L197.061,117.1000 ZM50.109,30.979 L50.109,117.1000 L38.234,117.1000 L38.234,3.079 L40.734,3.079 L117.218,91.172 L117.218,3.079 L128.546,3.079 L128.546,117.1000 L125.968,117.1000 L50.109,30.979 ZM0.344,3.079 L11.828,3.079 L11.828,117.1000 L0.344,117.1000 L0.344,3.079 Z"/>
</svg>