<svg 
 xmlns="http://www.w3.org/2000/svg"
 xmlns:xlink="http://www.w3.org/1999/xlink"
 width="52px" height="39px">
<path fill-rule="evenodd"  fill="rgb(52, 144, 249)"
 d="M51.036,27.711 C51.036,35.245 47.032,39.000 39.026,39.000 L37.574,39.000 L31.136,39.000 L23.633,39.000 L23.633,12.561 L31.136,12.561 L31.136,15.720 L31.136,22.037 L31.136,22.072 L31.136,33.034 L37.574,33.034 L37.574,33.057 L38.089,33.057 C42.221,32.929 44.340,31.232 44.469,27.711 C44.340,24.073 42.034,22.189 37.528,22.061 L35.257,22.061 L35.233,15.720 L37.223,15.720 C40.981,15.591 42.842,13.848 42.971,10.584 C42.713,7.824 40.782,6.385 37.153,6.256 L23.840,6.244 L17.078,6.256 L17.078,39.000 L10.324,39.000 L10.324,6.256 L0.000,6.256 L0.000,0.044 L23.750,0.044 L23.762,0.044 L30.200,0.044 L38.089,0.044 C45.347,0.418 49.163,3.869 49.537,10.397 C49.537,13.907 48.285,16.551 45.780,18.305 C49.163,20.446 50.907,23.581 51.036,27.711 Z"/>
</svg>